<?xml version="1.0" encoding="UTF-8"?>
<svg id="Layer_1" data-name="Layer 1" xmlns="http://www.w3.org/2000/svg" viewBox="0 0 83.02 65.22">
  <defs>
    <style>
      .cls-1, .cls-2 {
        opacity: .85;
      }

      .cls-1, .cls-3 {
        fill: #007095;
        stroke-width: 0px;
      }
    </style>
  </defs>
  <g class="cls-2">
    <path class="cls-3" d="m43.26,36.39h-5.67l1.84-2.71c.47-.7,1.51-.7,1.99,0l1.84,2.71Z"/>
    <path class="cls-3" d="m43.18,39.62h-5.51c-.97,0-1.54-1.08-1-1.88l.6-.88h6.3l.6.88c.54.8-.03,1.88-1,1.88Z"/>
    <path class="cls-1" d="m43.26,36.39h-5.67l1.84-2.71c.47-.7,1.51-.7,1.99,0l1.84,2.71Z"/>
    <path class="cls-1" d="m43.18,39.62h-5.51c-.97,0-1.54-1.08-1-1.88l.6-.88h6.3l.6.88c.54.8-.03,1.88-1,1.88Z"/>
  </g>
  <g class="cls-2">
    <path class="cls-3" d="m47.64,36.39h-14.43c-2.53,0-4.03-2.83-2.61-4.93l2.43-3.59h14.77l2.44,3.59c1.42,2.09-.08,4.93-2.61,4.93Z"/>
    <path class="cls-3" d="m47.49,27.4h-14.14l4.46-6.57c1.25-1.85,3.97-1.85,5.22,0l4.46,6.57Z"/>
    <path class="cls-3" d="m47.64,36.39h-14.43c-2.53,0-4.03-2.83-2.61-4.93l2.43-3.59h14.77l2.44,3.59c1.42,2.09-.08,4.93-2.61,4.93Z"/>
    <path class="cls-1" d="m47.64,36.39h-14.43c-2.53,0-4.03-2.83-2.61-4.93l2.43-3.59h14.77l2.44,3.59c1.42,2.09-.08,4.93-2.61,4.93Z"/>
    <path class="cls-1" d="m47.49,27.4h-14.14l4.46-6.57c1.25-1.85,3.97-1.85,5.22,0l4.46,6.57Z"/>
    <path class="cls-1" d="m47.64,36.39h-14.43c-2.53,0-4.03-2.83-2.61-4.93l2.43-3.59h14.77l2.44,3.59c1.42,2.09-.08,4.93-2.61,4.93Z"/>
  </g>
  <g>
    <g class="cls-2">
      <path class="cls-3" d="m52.09,27.4h-23.34c-4.1,0-6.52-4.57-4.22-7.97L36.2,2.24c2.02-2.98,6.42-2.98,8.44,0l11.67,17.2c2.3,3.39-.13,7.97-4.22,7.97Z"/>
      <path class="cls-3" d="m52.09,27.4h-23.34c-4.1,0-6.52-4.57-4.22-7.97L36.2,2.24c2.02-2.98,6.42-2.98,8.44,0l11.67,17.2c2.3,3.39-.13,7.97-4.22,7.97Z"/>
      <path class="cls-1" d="m52.09,27.4h-23.34c-4.1,0-6.52-4.57-4.22-7.97L36.2,2.24c2.02-2.98,6.42-2.98,8.44,0l11.67,17.2c2.3,3.39-.13,7.97-4.22,7.97Z"/>
      <path class="cls-1" d="m52.09,27.4h-23.34c-4.1,0-6.52-4.57-4.22-7.97L36.2,2.24c2.02-2.98,6.42-2.98,8.44,0l11.67,17.2c2.3,3.39-.13,7.97-4.22,7.97Z"/>
    </g>
    <g>
      <g class="cls-2">
        <path class="cls-3" d="m13.43,61.67c-.62,1.44-2.85,3.56-6.56,3.56-4.12,0-6.88-2.97-6.88-6.85,0-4.44,3.12-7.85,7.47-7.85,3.2,0,5.35,1.85,5.88,4.38.12.53,0,.94-.68,1.21-3.17,1.23-6.29,2.29-9.7,3.41.56,1.71,2.23,3.7,4.97,3.7,1.97,0,3.59-.97,4.64-2.09.5-.53,1.15-.21.85.53Zm-10.85-5.17c0,.73.03,1.29.18,1.79,2.41-.79,4.7-1.56,6.85-2.38.47-.18.65-.47.56-1-.29-1.82-2-3.06-3.62-3-2.65.03-3.97,2.44-3.97,4.59Z"/>
        <path class="cls-3" d="m27.87,50.82c.71,0,1.18.12,1.18.56,0,.76-1.09.62-2,2.94l-3.76,9.82c-.18.47-.29.68-1.32.91-1.12.26-1.41.09-1.62-.44l-4.06-10.29c-.91-2.32-1.94-2.18-1.94-2.94,0-.44.41-.56,1.15-.56h3.29c.68,0,1.15.12,1.15.56,0,.76-1.73.62-.82,2.94l3.32,8.58,3.29-8.58c.91-2.32-.62-2.18-.62-2.94,0-.44.44-.56,1.18-.56h1.59Z"/>
        <path class="cls-3" d="m42.63,61.67c-.62,1.44-2.85,3.56-6.56,3.56-4.12,0-6.88-2.97-6.88-6.85,0-4.44,3.12-7.85,7.47-7.85,3.2,0,5.35,1.85,5.88,4.38.12.53,0,.94-.68,1.21-3.17,1.23-6.29,2.29-9.7,3.41.56,1.71,2.23,3.7,4.97,3.7,1.97,0,3.59-.97,4.64-2.09.5-.53,1.15-.21.85.53Zm-10.85-5.17c0,.73.03,1.29.18,1.79,2.41-.79,4.7-1.56,6.85-2.38.47-.18.65-.47.56-1-.29-1.82-2-3.06-3.62-3-2.65.03-3.97,2.44-3.97,4.59Z"/>
        <path class="cls-3" d="m52.39,57.38l3,4.23c1.44,2.03,2.68,2,2.68,2.76,0,.44-.41.56-1.15.56h-3.88c-.71,0-1.18-.12-1.18-.59,0-.73,1.7-.71.26-2.73l-1.82-2.59-2.03,2.62c-1.53,1.97.15,1.97.15,2.73,0,.44-.41.56-1.15.56h-2.06c-.71,0-1.18-.12-1.18-.59,0-.73,1.18-.73,2.7-2.7l2.85-3.62-2.73-3.88c-1.44-2.03-2.68-2-2.68-2.76,0-.44.41-.56,1.15-.56h3.91c.68,0,1.15.12,1.15.56,0,.76-1.7.73-.26,2.76l1.53,2.18,1.68-2.2c1.5-2-.18-1.97-.18-2.73,0-.44.41-.56,1.15-.56h2.09c.68,0,1.15.12,1.15.56,0,.76-1.18.73-2.68,2.73l-2.47,3.26Z"/>
        <path class="cls-3" d="m61.7,55.23c0-2.56-1.44-2.06-1.44-2.97,0-.29.12-.44.82-.76,1.32-.62,2.32-.94,2.73-.97.38-.03.59.12.59.65l-.03,4.06v5.82c0,2.82,1.38,2.29,1.38,3.32,0,.44-.44.56-1.15.56h-3.15c-.71,0-1.18-.12-1.18-.59,0-1,1.41-.47,1.41-3.29v-5.82Z"/>
        <path class="cls-3" d="m83.02,63.46c0,.73-1.15,1.68-2.47,1.68s-1.76-.85-2.03-2.26c-1.23,1.53-3.26,2.35-4.97,2.35-3.59,0-5.64-2-5.64-4.5,0-2.82,2.53-4.76,6.11-4.76,1.23,0,2.06.12,3.17.38-.59-2.35-.97-4.03-3.53-4.03-1.68,0-2.76.53-4,1.23-.56.35-1.03-.09-.65-.68.71-1.03,2.82-2.32,5.5-2.32,3.23,0,4.5,2.03,5.06,4.59l1.35,6.38c.32,1.5.94,1.59,1.5,1.59.32,0,.59.03.59.35Zm-4.88-2.56c-.12-.68-.35-1.44-.62-2.73-.12-.71-2.06-.97-2.97-.97-2.59,0-3.97,1.23-3.94,3.2.09,1.91,1.41,3.35,3.62,3.35,2.03,0,4.14-1.56,3.91-2.85Z"/>
      </g>
      <path class="cls-1" d="m64.28,44.73v3.6c0,.63-.7,1.01-1.23.65l-.58-.4-.31-.2-1.77-1.21c-.46-.31-.46-.99,0-1.3l1.77-1.2.31-.21.58-.4c.52-.35,1.23.02,1.23.65Z"/>
    </g>
  </g>
</svg>