<?xml version="1.0" encoding="UTF-8"?>
<svg id="Layer_1" data-name="Layer 1" xmlns="http://www.w3.org/2000/svg" viewBox="0 0 170.05 41.26">
  <defs>
    <style>
      .cls-1, .cls-2 {
        opacity: .85;
      }

      .cls-1, .cls-3 {
        fill: #007095;
        stroke-width: 0px;
      }
    </style>
  </defs>
  <g>
    <g class="cls-2">
      <path class="cls-3" d="m20.43,37.89h-5.91l1.92-2.82c.49-.73,1.57-.73,2.07,0l1.92,2.82Z"/>
      <path class="cls-3" d="m20.35,41.26h-5.74c-1.01,0-1.6-1.13-1.04-1.96l.63-.92h6.56l.63.92c.56.83-.03,1.96-1.04,1.96Z"/>
      <path class="cls-1" d="m20.43,37.89h-5.91l1.92-2.82c.49-.73,1.57-.73,2.07,0l1.92,2.82Z"/>
      <path class="cls-1" d="m20.35,41.26h-5.74c-1.01,0-1.6-1.13-1.04-1.96l.63-.92h6.56l.63.92c.56.83-.03,1.96-1.04,1.96Z"/>
    </g>
    <g class="cls-2">
      <path class="cls-3" d="m24.99,37.89h-15.02c-2.64,0-4.2-2.95-2.71-5.13l2.53-3.74h15.38l2.54,3.74c1.48,2.18-.08,5.13-2.71,5.13Z"/>
      <path class="cls-3" d="m24.84,28.53h-14.72l4.64-6.84c1.31-1.92,4.13-1.92,5.43,0l4.65,6.84Z"/>
      <path class="cls-3" d="m24.99,37.89h-15.02c-2.64,0-4.2-2.95-2.71-5.13l2.53-3.74h15.38l2.54,3.74c1.48,2.18-.08,5.13-2.71,5.13Z"/>
      <path class="cls-1" d="m24.99,37.89h-15.02c-2.64,0-4.2-2.95-2.71-5.13l2.53-3.74h15.38l2.54,3.74c1.48,2.18-.08,5.13-2.71,5.13Z"/>
      <path class="cls-1" d="m24.84,28.53h-14.72l4.64-6.84c1.31-1.92,4.13-1.92,5.43,0l4.65,6.84Z"/>
      <path class="cls-1" d="m24.99,37.89h-15.02c-2.64,0-4.2-2.95-2.71-5.13l2.53-3.74h15.38l2.54,3.74c1.48,2.18-.08,5.13-2.71,5.13Z"/>
    </g>
    <g class="cls-2">
      <path class="cls-3" d="m29.63,28.53H5.32c-4.26,0-6.79-4.76-4.4-8.29L13.08,2.33c2.11-3.11,6.69-3.11,8.79,0l12.15,17.91c2.39,3.53-.14,8.29-4.4,8.29Z"/>
      <path class="cls-3" d="m29.63,28.53H5.32c-4.26,0-6.79-4.76-4.4-8.29L13.08,2.33c2.11-3.11,6.69-3.11,8.79,0l12.15,17.91c2.39,3.53-.14,8.29-4.4,8.29Z"/>
      <path class="cls-1" d="m29.63,28.53H5.32c-4.26,0-6.79-4.76-4.4-8.29L13.08,2.33c2.11-3.11,6.69-3.11,8.79,0l12.15,17.91c2.39,3.53-.14,8.29-4.4,8.29Z"/>
      <path class="cls-1" d="m29.63,28.53H5.32c-4.26,0-6.79-4.76-4.4-8.29L13.08,2.33c2.11-3.11,6.69-3.11,8.79,0l12.15,17.91c2.39,3.53-.14,8.29-4.4,8.29Z"/>
    </g>
  </g>
  <g>
    <g class="cls-2">
      <path class="cls-3" d="m66.64,30.78c-.92,2.14-4.24,5.29-9.74,5.29-6.12,0-10.22-4.41-10.22-10.18,0-6.6,4.63-11.66,11.1-11.66,4.76,0,7.95,2.75,8.74,6.51.17.79,0,1.4-1,1.79-4.72,1.83-9.35,3.41-14.42,5.07.83,2.53,3.32,5.5,7.38,5.5,2.93,0,5.33-1.44,6.9-3.1.74-.79,1.7-.31,1.27.79Zm-16.12-7.69c0,1.09.04,1.92.26,2.66,3.58-1.18,6.99-2.32,10.18-3.54.7-.26.96-.7.83-1.49-.44-2.71-2.97-4.54-5.37-4.46-3.93.04-5.9,3.63-5.9,6.81Z"/>
      <path class="cls-3" d="m88.09,14.66c1.05,0,1.75.17,1.75.83,0,1.14-1.62.92-2.97,4.37l-5.59,14.59c-.26.7-.44,1-1.97,1.35-1.66.39-2.1.13-2.4-.66l-6.03-15.29c-1.35-3.45-2.88-3.23-2.88-4.37,0-.66.61-.83,1.7-.83h4.89c1,0,1.7.17,1.7.83,0,1.14-2.58.92-1.22,4.37l4.94,12.76,4.89-12.76c1.35-3.45-.92-3.23-.92-4.37,0-.66.66-.83,1.75-.83h2.36Z"/>
      <path class="cls-3" d="m110.02,30.78c-.92,2.14-4.24,5.29-9.74,5.29-6.12,0-10.22-4.41-10.22-10.18,0-6.6,4.63-11.66,11.1-11.66,4.76,0,7.95,2.75,8.74,6.51.17.79,0,1.4-1,1.79-4.72,1.83-9.35,3.41-14.42,5.07.83,2.53,3.32,5.5,7.38,5.5,2.93,0,5.33-1.44,6.9-3.1.74-.79,1.7-.31,1.27.79Zm-16.12-7.69c0,1.09.04,1.92.26,2.66,3.58-1.18,6.99-2.32,10.18-3.54.7-.26.96-.7.83-1.49-.44-2.71-2.97-4.54-5.37-4.46-3.93.04-5.9,3.63-5.9,6.81Z"/>
      <path class="cls-3" d="m124.53,24.4l4.46,6.29c2.14,3.01,3.98,2.97,3.98,4.11,0,.66-.61.83-1.7.83h-5.77c-1.05,0-1.75-.17-1.75-.87,0-1.09,2.53-1.05.39-4.06l-2.71-3.84-3.01,3.89c-2.27,2.93.22,2.93.22,4.06,0,.66-.61.83-1.7.83h-3.06c-1.05,0-1.75-.17-1.75-.87,0-1.09,1.75-1.09,4.02-4.02l4.24-5.37-4.06-5.77c-2.14-3.01-3.98-2.97-3.98-4.11,0-.66.61-.83,1.7-.83h5.81c1,0,1.7.17,1.7.83,0,1.14-2.53,1.09-.39,4.11l2.27,3.23,2.49-3.28c2.23-2.97-.26-2.93-.26-4.06,0-.66.61-.83,1.7-.83h3.1c1,0,1.7.17,1.7.83,0,1.14-1.75,1.09-3.98,4.06l-3.67,4.85Z"/>
      <path class="cls-3" d="m138.38,21.21c0-3.8-2.14-3.06-2.14-4.41,0-.44.17-.66,1.22-1.14,1.97-.92,3.45-1.4,4.06-1.44.57-.04.87.17.87.96l-.04,6.03v8.65c0,4.19,2.05,3.41,2.05,4.94,0,.66-.66.83-1.7.83h-4.67c-1.05,0-1.75-.17-1.75-.87,0-1.49,2.1-.7,2.1-4.89v-8.65Z"/>
      <path class="cls-3" d="m170.05,33.44c0,1.09-1.7,2.49-3.67,2.49s-2.62-1.27-3.01-3.36c-1.83,2.27-4.85,3.49-7.38,3.49-5.33,0-8.39-2.97-8.39-6.68,0-4.19,3.76-7.08,9.09-7.08,1.83,0,3.06.17,4.72.57-.87-3.49-1.44-5.99-5.24-5.99-2.49,0-4.11.79-5.94,1.83-.83.52-1.53-.13-.96-1,1.05-1.53,4.19-3.45,8.17-3.45,4.81,0,6.68,3.01,7.51,6.81l2.01,9.48c.48,2.23,1.4,2.36,2.23,2.36.48,0,.87.04.87.52Zm-7.25-3.8c-.17-1-.52-2.14-.92-4.06-.17-1.05-3.06-1.44-4.41-1.44-3.84,0-5.9,1.83-5.85,4.76.13,2.84,2.1,4.98,5.37,4.98,3.01,0,6.16-2.32,5.81-4.24Z"/>
    </g>
    <path class="cls-1" d="m142.2,5.61v5.35c0,.94-1.05,1.49-1.82.97l-.85-.59-.46-.3-2.63-1.79c-.68-.46-.68-1.47,0-1.93l2.63-1.78.46-.31.85-.59c.78-.52,1.82.03,1.82.97Z"/>
  </g>
</svg>