<?xml version="1.0" encoding="UTF-8"?>
<svg id="Layer_1" data-name="Layer 1" xmlns="http://www.w3.org/2000/svg" viewBox="0 0 34.95 41.26">
  <defs>
    <style>
      .cls-1, .cls-2 {
        opacity: .85;
      }

      .cls-1, .cls-3 {
        fill: #007095;
        stroke-width: 0px;
      }
    </style>
  </defs>
  <g class="cls-2">
    <path class="cls-3" d="m20.43,37.89h-5.91l1.92-2.82c.49-.73,1.57-.73,2.07,0l1.92,2.82Z"/>
    <path class="cls-3" d="m20.35,41.26h-5.74c-1.01,0-1.6-1.13-1.04-1.96l.63-.92h6.56l.63.92c.56.83-.03,1.96-1.04,1.96Z"/>
    <path class="cls-1" d="m20.43,37.89h-5.91l1.92-2.82c.49-.73,1.57-.73,2.07,0l1.92,2.82Z"/>
    <path class="cls-1" d="m20.35,41.26h-5.74c-1.01,0-1.6-1.13-1.04-1.96l.63-.92h6.56l.63.92c.56.83-.03,1.96-1.04,1.96Z"/>
  </g>
  <g class="cls-2">
    <path class="cls-3" d="m24.99,37.89h-15.02c-2.64,0-4.2-2.95-2.71-5.13l2.53-3.74h15.38l2.54,3.74c1.48,2.18-.08,5.13-2.71,5.13Z"/>
    <path class="cls-3" d="m24.84,28.53h-14.72l4.64-6.84c1.31-1.92,4.13-1.92,5.43,0l4.65,6.84Z"/>
    <path class="cls-3" d="m24.99,37.89h-15.02c-2.64,0-4.2-2.95-2.71-5.13l2.53-3.74h15.38l2.54,3.74c1.48,2.18-.08,5.13-2.71,5.13Z"/>
    <path class="cls-1" d="m24.99,37.89h-15.02c-2.64,0-4.2-2.95-2.71-5.13l2.53-3.74h15.38l2.54,3.74c1.48,2.18-.08,5.13-2.71,5.13Z"/>
    <path class="cls-1" d="m24.84,28.53h-14.72l4.64-6.84c1.31-1.92,4.13-1.92,5.43,0l4.65,6.84Z"/>
    <path class="cls-1" d="m24.99,37.89h-15.02c-2.64,0-4.2-2.95-2.71-5.13l2.53-3.74h15.38l2.54,3.74c1.48,2.18-.08,5.13-2.71,5.13Z"/>
  </g>
  <g class="cls-2">
    <path class="cls-3" d="m29.63,28.53H5.32c-4.26,0-6.79-4.76-4.4-8.29L13.08,2.33c2.11-3.11,6.69-3.11,8.79,0l12.15,17.91c2.39,3.53-.14,8.29-4.4,8.29Z"/>
    <path class="cls-3" d="m29.63,28.53H5.32c-4.26,0-6.79-4.76-4.4-8.29L13.08,2.33c2.11-3.11,6.69-3.11,8.79,0l12.15,17.91c2.39,3.53-.14,8.29-4.4,8.29Z"/>
    <path class="cls-1" d="m29.63,28.53H5.32c-4.26,0-6.79-4.76-4.4-8.29L13.08,2.33c2.11-3.11,6.69-3.11,8.79,0l12.15,17.91c2.39,3.53-.14,8.29-4.4,8.29Z"/>
    <path class="cls-1" d="m29.63,28.53H5.32c-4.26,0-6.79-4.76-4.4-8.29L13.08,2.33c2.11-3.11,6.69-3.11,8.79,0l12.15,17.91c2.39,3.53-.14,8.29-4.4,8.29Z"/>
  </g>
</svg>