<?xml version="1.0" encoding="UTF-8"?>
<svg id="Layer_1" data-name="Layer 1" xmlns="http://www.w3.org/2000/svg" viewBox="0 0 265.13 323.56">
  <defs>
    <style>
      .cls-1 {
        stroke-width: 5.47px;
      }

      .cls-1, .cls-2 {
        fill: none;
        stroke: #474747;
        stroke-miterlimit: 10;
      }

      .cls-2 {
        stroke-width: 3.31px;
      }

      .cls-3 {
        fill: #fb8927;
      }

      .cls-3, .cls-4, .cls-5, .cls-6 {
        stroke-width: 0px;
      }

      .cls-4 {
        fill: #474747;
      }

      .cls-5 {
        fill: #58ad89;
      }

      .cls-6 {
        fill: #e59c7b;
      }
    </style>
  </defs>
  <g>
    <g>
      <rect class="cls-5" x="102.94" y="49.22" width="9.55" height="37.6"/>
      <path class="cls-5" d="m96.47,147.66h-31.13s0-80.08,0-80.08c0-10.14,8.22-18.36,18.36-18.36h19.24s0,37.6,0,37.6h23.24s0,31.13,0,31.13c0,16.41-13.3,29.71-29.7,29.71Z"/>
    </g>
    <g>
      <rect class="cls-5" x="18.29" y="53.29" width="9.55" height="37.6"/>
      <path class="cls-5" d="m29.7,151.73h31.13s0-80.08,0-80.08c0-10.14-8.22-18.36-18.36-18.36h-19.24s0,37.6,0,37.6H0s0,31.13,0,31.13c0,16.41,13.3,29.71,29.7,29.71Z"/>
    </g>
    <path class="cls-6" d="m38.35,197.74v25.74c0,13.07,9.25,23.97,21.56,26.53v-15.56c0-15.78-8.7-29.53-21.56-36.71Z"/>
    <path class="cls-6" d="m86.91,223.87v25.74c0,13.07-9.25,23.97-21.56,26.53v-15.56c0-15.78,8.7-29.53,21.56-36.71Z"/>
    <line class="cls-1" x1="62.57" y1="97.29" x2="62.57" y2="323.56"/>
    <g>
      <rect class="cls-6" x="18.19" y="30.42" width="9.55" height="37.6"/>
      <path class="cls-3" d="m34.2,128.86h31.13s0-80.08,0-80.08c0-10.14-8.22-18.36-18.36-18.36h-19.24s0,37.6,0,37.6H4.5s0,31.13,0,31.13c0,16.41,13.3,29.71,29.7,29.71Z"/>
    </g>
    <g>
      <rect class="cls-6" x="100.17" y="0" width="9.55" height="37.6"/>
      <path class="cls-3" d="m93.71,98.44h-31.13s0-80.08,0-80.08c0-10.14,8.22-18.36,18.36-18.36h19.24s0,37.6,0,37.6h23.24s0,31.13,0,31.13c0,16.41-13.3,29.71-29.7,29.71Z"/>
    </g>
  </g>
  <g>
    <polygon class="cls-4" points="156.6 239.64 164.43 241.62 185.39 230.13 177.56 228.15 156.6 239.64"/>
    <path class="cls-4" d="m135.81,261.56l25.53,6.47,44.65-24.47c5.65-3.1,3.5-7.32-4.82-9.43l-15.78-4-20.96,11.49-19.05-4.83-17.36,9.51c-9.15,5.01-5.66,11.84,7.79,15.25Z"/>
    <polygon class="cls-4" points="229.37 261.54 221.55 259.56 242.51 248.07 250.34 250.05 229.37 261.54"/>
    <path class="cls-4" d="m182.32,276.81l-25.53-6.47,44.65-24.47c5.65-3.1,16.98-3.9,25.29-1.8l15.78,4-20.96,11.49,19.05,4.83-17.36,9.51c-9.15,5.01-27.47,6.31-40.92,2.9Z"/>
    <polygon class="cls-4" points="184.04 224.6 191.87 226.58 212.84 215.09 205.01 213.11 184.04 224.6"/>
    <path class="cls-4" d="m163.25,246.52l25.53,6.47,44.65-24.47c5.65-3.1,3.5-7.32-4.82-9.43l-15.78-4-20.96,11.49-19.05-4.83-17.36,9.51c-9.15,5.01-5.66,11.84,7.79,15.25Z"/>
    <path class="cls-4" d="m154.52,288.68l-14.35,7.87c-7.29,3.99-20.95,5.4-32.47,3.63l8.68-4.76c8.8-4.82,23.59-7.22,38.15-6.74Z"/>
    <path class="cls-4" d="m100.13,286.58l-14.35,7.87c-7.29,3.99-5.78,9.25,2.89,12.59l8.68-4.76c8.8-4.82,9.34-10.83,2.79-15.7Z"/>
    <line class="cls-2" x1="190.67" y1="252.95" x2="64.5" y2="322.1"/>
    <polygon class="cls-4" points="244.17 253.43 236.34 251.45 257.3 239.96 265.13 241.94 244.17 253.43"/>
    <path class="cls-4" d="m197.11,268.7l-25.53-6.47,44.65-24.47c5.65-3.1,16.98-3.9,25.29-1.8l15.78,4-20.96,11.49,19.05,4.83-17.36,9.51c-9.15,5.01-27.47,6.31-40.92,2.9Z"/>
  </g>
</svg>