<?xml version="1.0" encoding="UTF-8"?>
<svg id="Layer_1" data-name="Layer 1" xmlns="http://www.w3.org/2000/svg" viewBox="0 0 175.36 117.77">
  <defs>
    <style>
      .cls-1, .cls-2 {
        opacity: .85;
      }

      .cls-1, .cls-3 {
        fill: #2d7a9c;
        stroke-width: 0px;
      }
    </style>
  </defs>
  <g class="cls-2">
    <path class="cls-3" d="m122.29,117.77H21.96c-17.6,0-28.02-19.66-18.15-34.24L53.98,9.61c8.7-12.82,27.59-12.82,36.3,0l50.16,73.92c9.87,14.58-.56,34.24-18.15,34.24Z"/>
    <path class="cls-3" d="m122.29,117.77H21.96c-17.6,0-28.02-19.66-18.15-34.24L53.98,9.61c8.7-12.82,27.59-12.82,36.3,0l50.16,73.92c9.87,14.58-.56,34.24-18.15,34.24Z"/>
    <path class="cls-1" d="m122.29,117.77H21.96c-17.6,0-28.02-19.66-18.15-34.24L53.98,9.61c8.7-12.82,27.59-12.82,36.3,0l50.16,73.92c9.87,14.58-.56,34.24-18.15,34.24Z"/>
    <path class="cls-1" d="m122.29,117.77H21.96c-17.6,0-28.02-19.66-18.15-34.24L53.98,9.61c8.7-12.82,27.59-12.82,36.3,0l50.16,73.92c9.87,14.58-.56,34.24-18.15,34.24Z"/>
  </g>
  <g class="cls-2">
    <path class="cls-3" d="m163.39,117.77h-54.67c-9.59,0-15.27-10.71-9.89-18.65l27.33-40.28c4.74-6.98,15.04-6.98,19.78,0l27.33,40.28c5.38,7.94-.31,18.65-9.89,18.65Z"/>
    <path class="cls-3" d="m163.39,117.77h-54.67c-9.59,0-15.27-10.71-9.89-18.65l27.33-40.28c4.74-6.98,15.04-6.98,19.78,0l27.33,40.28c5.38,7.94-.31,18.65-9.89,18.65Z"/>
    <path class="cls-1" d="m163.39,117.77h-54.67c-9.59,0-15.27-10.71-9.89-18.65l27.33-40.28c4.74-6.98,15.04-6.98,19.78,0l27.33,40.28c5.38,7.94-.31,18.65-9.89,18.65Z"/>
    <path class="cls-1" d="m163.39,117.77h-54.67c-9.59,0-15.27-10.71-9.89-18.65l27.33-40.28c4.74-6.98,15.04-6.98,19.78,0l27.33,40.28c5.38,7.94-.31,18.65-9.89,18.65Z"/>
  </g>
</svg>