<?xml version="1.0" encoding="UTF-8"?>
<svg id="Layer_1" data-name="Layer 1" xmlns="http://www.w3.org/2000/svg" viewBox="0 0 151.15 143.51">
  <defs>
    <style>
      .cls-1 {
        stroke-width: 1.49px;
      }

      .cls-1, .cls-2 {
        fill: none;
        stroke: #515151;
        stroke-miterlimit: 10;
      }

      .cls-2 {
        stroke-width: 1.37px;
      }

      .cls-3 {
        fill: #515151;
      }

      .cls-3, .cls-4, .cls-5, .cls-6, .cls-7 {
        stroke-width: 0px;
      }

      .cls-4 {
        fill: #6fb793;
      }

      .cls-5 {
        fill: #cc9679;
      }

      .cls-6 {
        fill: #f49400;
      }

      .cls-7 {
        fill: #e3a782;
      }
    </style>
  </defs>
  <g>
    <g>
      <path class="cls-3" d="m88.04,70.17l3.17-3.93c1.61-2,5.09-3.25,8.26-3.1l-1.91,2.38c-1.94,2.41-5.65,4.13-9.51,4.66Z"/>
      <path class="cls-3" d="m93.36,70.94l3.17-3.93c1.61-2,5.09-3.25,8.26-3.1l-1.91,2.38c-1.94,2.41-5.65,4.13-9.51,4.66Z"/>
      <path class="cls-3" d="m98.18,72.18l3.17-3.93c1.61-2,5.09-3.25,8.26-3.1l-1.91,2.38c-1.94,2.41-5.65,4.13-9.51,4.66Z"/>
      <path class="cls-3" d="m102.88,73.59l3.17-3.93c1.61-2,5.09-3.25,8.26-3.1l-1.91,2.38c-1.94,2.41-5.65,4.13-9.51,4.66Z"/>
      <path class="cls-3" d="m107.24,75.39l3.17-3.93c1.61-2,5.09-3.25,8.26-3.1l-1.91,2.38c-1.94,2.41-5.65,4.13-9.51,4.66Z"/>
      <path class="cls-3" d="m111.73,76.9l3.17-3.93c1.61-2,5.09-3.25,8.26-3.1l-1.91,2.38c-1.94,2.41-5.65,4.13-9.51,4.66Z"/>
      <path class="cls-3" d="m115.74,79.13l3.17-3.93c1.61-2,5.09-3.25,8.26-3.1l-1.91,2.38c-1.94,2.41-5.65,4.13-9.51,4.66Z"/>
      <path class="cls-3" d="m119.24,81.34l3.17-3.93c1.61-2,5.09-3.25,8.26-3.1l-1.91,2.38c-1.94,2.41-5.65,4.13-9.51,4.66Z"/>
      <path class="cls-3" d="m123.22,83.59l3.17-3.93c1.61-2,5.09-3.25,8.26-3.1l-1.91,2.38c-1.94,2.41-5.65,4.13-9.51,4.66Z"/>
      <path class="cls-3" d="m126.54,85.93l3.17-3.93c1.61-2,5.09-3.25,8.26-3.1l-1.91,2.38c-1.94,2.41-5.65,4.13-9.51,4.66Z"/>
      <path class="cls-3" d="m130.17,88.35l3.17-3.93c1.61-2,5.09-3.25,8.26-3.1l-1.91,2.38c-1.94,2.41-5.65,4.13-9.51,4.66Z"/>
      <path class="cls-3" d="m133.21,91.04l3.17-3.93c1.61-2,5.09-3.25,8.26-3.1l-1.91,2.38c-1.94,2.41-5.65,4.13-9.51,4.66Z"/>
      <path class="cls-3" d="m82.31,69.69l3.06-3.95c1.55-2.01,5.01-3.3,8.2-3.18l-1.85,2.39c-1.88,2.42-5.54,4.17-9.41,4.74Z"/>
      <path class="cls-3" d="m97.73,52.35l-3.92,3.75c-1.99,1.9-1.67,4.08.57,5.24l2.37-2.27c2.4-2.3,2.63-4.86.97-6.73Z"/>
      <path class="cls-3" d="m103.62,52.61l-3.92,3.75c-1.99,1.9-1.67,4.08.57,5.24l2.37-2.27c2.4-2.3,2.63-4.86.97-6.73Z"/>
      <path class="cls-3" d="m114.55,54.88l-3.92,3.75c-1.99,1.9-1.67,4.08.57,5.24l2.37-2.27c2.4-2.3,2.63-4.86.97-6.73Z"/>
      <path class="cls-3" d="m119.33,56.94l-3.92,3.75c-1.99,1.9-1.67,4.08.57,5.24l2.37-2.27c2.4-2.3,2.63-4.86.97-6.73Z"/>
      <path class="cls-3" d="m124.23,58.68l-3.92,3.75c-1.99,1.9-1.67,4.08.57,5.24l2.37-2.27c2.4-2.3,2.63-4.86.97-6.73Z"/>
      <path class="cls-3" d="m128.81,61.41l-3.92,3.75c-1.99,1.9-1.67,4.08.57,5.24l2.37-2.27c2.4-2.3,2.63-4.86.97-6.73Z"/>
      <path class="cls-3" d="m133.4,63.9l-3.92,3.75c-1.99,1.9-1.67,4.08.57,5.24l2.37-2.27c2.4-2.3,2.63-4.86.97-6.73Z"/>
      <path class="cls-3" d="m137.62,67.04l-3.92,3.75c-1.99,1.9-1.67,4.08.57,5.24l2.37-2.27c2.4-2.3,2.63-4.86.97-6.73Z"/>
      <path class="cls-3" d="m141.68,70.04l-3.92,3.75c-1.99,1.9-1.67,4.08.57,5.24l2.37-2.27c2.4-2.3,2.63-4.86.97-6.73Z"/>
      <path class="cls-3" d="m145.32,72.77l-3.92,3.75c-1.99,1.9-1.67,4.08.57,5.24l2.37-2.27c2.4-2.3,2.63-4.86.97-6.73Z"/>
      <path class="cls-3" d="m148.89,75.92l-3.92,3.75c-1.99,1.9-1.67,4.08.57,5.24l2.37-2.27c2.4-2.3,2.63-4.86.97-6.73Z"/>
      <path class="cls-3" d="m108.73,53.5l-3.92,3.75c-1.99,1.9-1.67,4.08.57,5.24l2.37-2.27c2.4-2.3,2.63-4.86.97-6.73Z"/>
      <path class="cls-3" d="m87.33,61.78s29.25-3.92,58.69,24.82"/>
    </g>
    <g>
      <path class="cls-3" d="m46.29,107.98l1.8-2.11c2.05-2.69,4.45-4.9,7.21-6.64,2.75-1.73,6.11-3.06,10.09-3.98,3.98-.92,8.76-1.51,14.34-1.77,5.52-.28,9.94-.65,13.25-1.12,3.31-.47,5.94-1.14,7.9-2,1.95-.87,3.65-2.04,5.07-3.52l.1-.1c1.36-1.41,1.9-2.8,1.63-4.16-.27-1.36-1.23-2.63-2.87-3.82-1.65-1.18-3.92-2.15-6.82-2.91s-5.91-1.1-8.84-.99c-2.93.12-5.63.6-8.08,1.47-2.46.87-4.46,2.02-6.01,3.46l-.35.36-30.1-7.87.4-.41c4.26-4.27,9.88-7.55,16.86-9.86,6.98-2.31,14.88-3.47,23.71-3.49,8.83-.02,18.18,1.26,28.06,3.84,9.39,2.45,16.73,5.44,22.04,8.95,5.31,3.52,8.41,7.32,9.31,11.4.89,4.09-.66,8.21-4.66,12.37l-.1.1c-2.42,2.51-5.33,4.61-8.74,6.3-3.41,1.69-7.4,2.99-11.99,3.9-4.59.91-9.88,1.51-15.87,1.79-5.49.24-9.94.61-13.34,1.09-3.41.49-6.13,1.19-8.16,2.1s-3.8,2.14-5.29,3.68l-1.44,1.49-29.08-7.6Z"/>
      <path class="cls-3" d="m37.05,137.19c-4.88-1.28-8.16-3.25-9.83-5.92-1.67-2.67-1.25-5.32,1.27-7.93,2.48-2.58,6.28-4.32,11.4-5.22,5.12-.9,10.11-.71,14.99.56,4.88,1.27,8.17,3.25,9.88,5.94,1.7,2.68,1.32,5.31-1.17,7.89-2.52,2.61-6.35,4.37-11.5,5.26s-10.16.7-15.04-.58Z"/>
    </g>
    <g>
      <path class="cls-3" d="m104.83,58.17l-5.63,1.94c-2.86.99-4.07,2.87-3.05,4.48l3.41-1.17c3.46-1.19,5.35-3.23,5.28-5.25Z"/>
      <path class="cls-3" d="m107.36,60.82l-5.63,1.94c-2.86.99-4.07,2.87-3.05,4.48l3.41-1.17c3.46-1.19,5.35-3.23,5.28-5.25Z"/>
      <path class="cls-3" d="m110.53,63.19l-5.63,1.94c-2.86.99-4.07,2.87-3.05,4.48l3.41-1.17c3.46-1.19,5.35-3.23,5.28-5.25Z"/>
      <path class="cls-3" d="m113.95,65.47l-5.63,1.94c-2.86.99-4.07,2.87-3.05,4.48l3.41-1.17c3.46-1.19,5.35-3.23,5.28-5.25Z"/>
      <path class="cls-3" d="m117.93,67.55l-5.63,1.94c-2.86.99-4.07,2.87-3.05,4.48l3.41-1.17c3.46-1.19,5.35-3.23,5.28-5.25Z"/>
      <path class="cls-3" d="m121.47,69.72l-5.63,1.94c-2.86.99-4.07,2.87-3.05,4.48l3.41-1.17c3.46-1.19,5.35-3.23,5.28-5.25Z"/>
      <path class="cls-3" d="m126.06,71.59l-5.63,1.94c-2.86.99-4.07,2.87-3.05,4.48l3.41-1.17c3.46-1.19,5.35-3.23,5.28-5.25Z"/>
      <path class="cls-3" d="m130.5,73.2l-5.63,1.94c-2.86.99-4.07,2.87-3.05,4.48l3.41-1.17c3.46-1.19,5.35-3.23,5.28-5.25Z"/>
      <path class="cls-3" d="m135.11,75.05l-5.63,1.94c-2.86.99-4.07,2.87-3.05,4.48l3.41-1.17c3.46-1.19,5.35-3.23,5.28-5.25Z"/>
      <path class="cls-3" d="m139.73,76.55l-5.63,1.94c-2.86.99-4.07,2.87-3.05,4.48l3.41-1.17c3.46-1.19,5.35-3.23,5.28-5.25Z"/>
      <path class="cls-3" d="m144.53,78.2l-5.63,1.94c-2.86.99-4.07,2.87-3.05,4.48l3.41-1.17c3.46-1.19,5.35-3.23,5.28-5.25Z"/>
      <path class="cls-3" d="m149.63,79.54l-5.63,1.94c-2.86.99-4.07,2.87-3.05,4.48l3.41-1.17c3.46-1.19,5.35-3.23,5.28-5.25Z"/>
      <path class="cls-3" d="m102.66,55.28l-5.69,1.89c-2.89.96-4.16,2.83-3.2,4.45l3.44-1.14c3.49-1.16,5.46-3.18,5.45-5.2Z"/>
      <path class="cls-3" d="m100.49,52.63l-5.69,1.89c-2.89.96-4.16,2.83-3.2,4.45l3.44-1.14c3.49-1.16,5.46-3.18,5.45-5.2Z"/>
      <path class="cls-3" d="m78.17,64.59l5.16-2.31c2.62-1.17,6.24-1.19,8.66-.14l-3.12,1.4c-3.16,1.42-7.27,1.75-10.7,1.05Z"/>
      <path class="cls-3" d="m77.04,60.55l5.16-2.31c2.62-1.17,6.24-1.19,8.66-.14l-3.12,1.4c-3.16,1.42-7.27,1.75-10.7,1.05Z"/>
      <path class="cls-3" d="m80.01,67.58l5.16-2.31c2.62-1.17,6.24-1.19,8.66-.14l-3.12,1.4c-3.16,1.42-7.27,1.75-10.7,1.05Z"/>
      <path class="cls-3" d="m86.34,72.98l5.16-2.31c2.62-1.17,6.24-1.19,8.66-.14l-3.12,1.4c-3.16,1.42-7.27,1.75-10.7,1.05Z"/>
      <path class="cls-3" d="m90.84,75.25l5.16-2.31c2.62-1.17,6.24-1.19,8.66-.14l-3.12,1.4c-3.16,1.42-7.27,1.75-10.7,1.05Z"/>
      <path class="cls-3" d="m94.84,77.61l5.16-2.31c2.62-1.17,6.24-1.19,8.66-.14l-3.12,1.4c-3.16,1.42-7.27,1.75-10.7,1.05Z"/>
      <path class="cls-3" d="m100.39,79.73l5.16-2.31c2.62-1.17,6.24-1.19,8.66-.14l-3.12,1.4c-3.16,1.42-7.27,1.75-10.7,1.05Z"/>
      <path class="cls-3" d="m105.54,81.87l5.16-2.31c2.62-1.17,6.24-1.19,8.66-.14l-3.12,1.4c-3.16,1.42-7.27,1.75-10.7,1.05Z"/>
      <path class="cls-3" d="m111.66,83.77l5.16-2.31c2.62-1.17,6.24-1.19,8.66-.14l-3.12,1.4c-3.16,1.42-7.27,1.75-10.7,1.05Z"/>
      <path class="cls-3" d="m117.52,85.6l5.16-2.31c2.62-1.17,6.24-1.19,8.66-.14l-3.12,1.4c-3.16,1.42-7.27,1.75-10.7,1.05Z"/>
      <path class="cls-3" d="m122.83,87.23l5.16-2.31c2.62-1.17,6.24-1.19,8.66-.14l-3.12,1.4c-3.16,1.42-7.27,1.75-10.7,1.05Z"/>
      <path class="cls-3" d="m128.82,88.8l5.16-2.31c2.62-1.17,6.24-1.19,8.66-.14l-3.12,1.4c-3.16,1.42-7.27,1.75-10.7,1.05Z"/>
      <path class="cls-3" d="m82.7,70.12l5.16-2.31c2.62-1.17,6.24-1.19,8.66-.14l-3.12,1.4c-3.16,1.42-7.27,1.75-10.7,1.05Z"/>
      <path class="cls-3" d="m91,58.49s.66,15.27,54.49,27.96"/>
    </g>
  </g>
  <g>
    <g>
      <path class="cls-7" d="m31.84,33.41l-.47-6.52c-.24-3.31,1.49-6.28,4.02-7.21l.29,3.94c.29,4-1.28,7.68-3.84,9.79Z"/>
      <path class="cls-7" d="m36.46,32.55l-.47-6.52c-.24-3.31,1.49-6.28,4.02-7.21l.29,3.94c.29,4-1.28,7.68-3.84,9.79Z"/>
      <path class="cls-7" d="m41.05,32.52l-.47-6.52c-.24-3.31,1.49-6.28,4.02-7.21l.29,3.94c.29,4-1.28,7.68-3.84,9.79Z"/>
      <path class="cls-7" d="m45.67,32.77l-.47-6.52c-.24-3.31,1.49-6.28,4.02-7.21l.29,3.94c.29,4-1.28,7.68-3.84,9.79Z"/>
      <path class="cls-7" d="m50.32,33.67l-.47-6.52c-.24-3.31,1.49-6.28,4.02-7.21l.29,3.94c.29,4-1.28,7.68-3.84,9.79Z"/>
      <path class="cls-7" d="m54.86,34.14l-.47-6.52c-.24-3.31,1.49-6.28,4.02-7.21l.29,3.94c.29,4-1.28,7.68-3.84,9.79Z"/>
      <path class="cls-7" d="m59.56,35.76l-.47-6.52c-.24-3.31,1.49-6.28,4.02-7.21l.29,3.94c.29,4-1.28,7.68-3.84,9.79Z"/>
      <path class="cls-7" d="m63.85,37.54l-.47-6.52c-.24-3.31,1.49-6.28,4.02-7.21l.29,3.94c.29,4-1.28,7.68-3.84,9.79Z"/>
      <path class="cls-7" d="m68.54,39.19l-.47-6.52c-.24-3.31,1.49-6.28,4.02-7.21l.29,3.94c.29,4-1.28,7.68-3.84,9.79Z"/>
      <path class="cls-7" d="m72.8,41.22l-.47-6.52c-.24-3.31,1.49-6.28,4.02-7.21l.29,3.94c.29,4-1.28,7.68-3.84,9.79Z"/>
      <path class="cls-7" d="m77.34,43.23l-.47-6.52c-.24-3.31,1.49-6.28,4.02-7.21l.29,3.94c.29,4-1.28,7.68-3.84,9.79Z"/>
      <path class="cls-7" d="m81.64,45.83l-.47-6.52c-.24-3.31,1.49-6.28,4.02-7.21l.29,3.94c.29,4-1.28,7.68-3.84,9.79Z"/>
      <path class="cls-7" d="m27.11,34.79l-.57-6.51c-.29-3.31,1.4-6.31,3.92-7.29l.35,3.94c.35,3.99-1.16,7.71-3.69,9.87Z"/>
      <path class="cls-5" d="m26.14,5.51l-.23,6.54c-.12,3.32,1.73,6.2,4.29,6.98l.14-3.96c.14-4.01-1.56-7.6-4.2-9.57Z"/>
      <path class="cls-5" d="m30.82,3.76l-.23,6.54c-.12,3.32,1.73,6.2,4.29,6.98l.14-3.96c.14-4.01-1.56-7.6-4.2-9.57Z"/>
      <path class="cls-5" d="m40.83,2.96l-.23,6.54c-.12,3.32,1.73,6.2,4.29,6.98l.14-3.96c.14-4.01-1.56-7.6-4.2-9.57Z"/>
      <path class="cls-5" d="m45.99,4.08l-.23,6.54c-.12,3.32,1.73,6.2,4.29,6.98l.14-3.96c.14-4.01-1.56-7.6-4.2-9.57Z"/>
      <path class="cls-5" d="m51,4.69l-.23,6.54c-.12,3.32,1.73,6.2,4.29,6.98l.14-3.96c.14-4.01-1.56-7.6-4.2-9.57Z"/>
      <path class="cls-5" d="m56.51,6.8l-.23,6.54c-.12,3.32,1.73,6.2,4.29,6.98l.14-3.96c.14-4.01-1.56-7.6-4.2-9.57Z"/>
      <path class="cls-5" d="m61.84,8.57l-.23,6.54c-.12,3.32,1.73,6.2,4.29,6.98l.14-3.96c.14-4.01-1.56-7.6-4.2-9.57Z"/>
      <path class="cls-5" d="m67.37,11.36l-.23,6.54c-.12,3.32,1.73,6.2,4.29,6.98l.14-3.96c.14-4.01-1.56-7.6-4.2-9.57Z"/>
      <path class="cls-5" d="m72.67,14.02l-.23,6.54c-.12,3.32,1.73,6.2,4.29,6.98l.14-3.96c.14-4.01-1.56-7.6-4.2-9.57Z"/>
      <path class="cls-5" d="m77.45,16.45l-.23,6.54c-.12,3.32,1.73,6.2,4.29,6.98l.14-3.96c.14-4.01-1.56-7.6-4.2-9.57Z"/>
      <path class="cls-5" d="m82.49,19.5l-.23,6.54c-.12,3.32,1.73,6.2,4.29,6.98l.14-3.96c.14-4.01-1.56-7.6-4.2-9.57Z"/>
      <path class="cls-5" d="m35.38,3.15l-.23,6.54c-.12,3.32,1.73,6.2,4.29,6.98l.14-3.96c.14-4.01-1.56-7.6-4.2-9.57Z"/>
      <path class="cls-1" d="m25.13,22.16s19.43-15.84,63.02,13"/>
    </g>
    <g>
      <path class="cls-4" d="m27.77,100.17l-.18-3.54c-.41-4.42-.21-8.31.62-11.68.82-3.36,2.41-6.38,4.77-9.06,2.36-2.68,5.57-5.2,9.64-7.56,4.01-2.36,7.1-4.45,9.29-6.28s3.7-3.68,4.56-5.57,1.28-4.1,1.28-6.64v-.18c0-2.42-.6-4.51-1.81-6.28s-2.87-3.17-5-4.2c-2.12-1.03-4.57-1.55-7.34-1.55s-5.32.6-7.47,1.81c-2.15,1.21-3.85,2.84-5.09,4.91-1.24,2.07-1.92,4.37-2.04,6.9v.62H.26v-.71c.12-7.37,1.99-13.89,5.62-19.55,3.63-5.66,8.8-10.08,15.52-13.27,6.72-3.18,14.8-4.78,24.23-4.78s16.76,1.46,23.4,4.38c6.64,2.92,11.79,7.02,15.48,12.3,3.68,5.28,5.53,11.48,5.53,18.62v.18c0,4.31-.68,8.23-2.04,11.77-1.35,3.54-3.45,6.75-6.28,9.64-2.83,2.89-6.43,5.6-10.79,8.14-4.01,2.3-7.14,4.39-9.37,6.28-2.24,1.89-3.8,3.82-4.69,5.79s-1.33,4.29-1.33,6.94v2.56h-27.77Z"/>
      <path class="cls-6" d="m42.19,143.51c-4.66,0-8.61-1.53-11.85-4.6s-4.86-6.84-4.86-11.32,1.62-8.17,4.86-11.23c3.24-3.07,7.19-4.6,11.85-4.6s8.62,1.53,11.9,4.6c3.27,3.07,4.91,6.81,4.91,11.23s-1.63,8.26-4.91,11.32c-3.27,3.07-7.24,4.6-11.9,4.6Z"/>
    </g>
    <g>
      <path class="cls-7" d="m35.83,10.94l-2.87,4.68c-1.46,2.38-.99,5.39.96,7.23l1.74-2.83c1.76-2.87,1.71-6.34.18-9.08Z"/>
      <path class="cls-7" d="m39.71,13.68l-2.87,4.68c-1.46,2.38-.99,5.39.96,7.23l1.74-2.83c1.76-2.87,1.71-6.34.18-9.08Z"/>
      <path class="cls-7" d="m43.87,15.78l-2.87,4.68c-1.46,2.38-.99,5.39.96,7.23l1.74-2.83c1.76-2.87,1.71-6.34.18-9.08Z"/>
      <path class="cls-7" d="m48.16,17.69l-2.87,4.68c-1.46,2.38-.99,5.39.96,7.23l1.74-2.83c1.76-2.87,1.71-6.34.18-9.08Z"/>
      <path class="cls-7" d="m52.72,19.12l-2.87,4.68c-1.46,2.38-.99,5.39.96,7.23l1.74-2.83c1.76-2.87,1.71-6.34.18-9.08Z"/>
      <path class="cls-7" d="m57.02,20.82l-2.87,4.68c-1.46,2.38-.99,5.39.96,7.23l1.74-2.83c1.76-2.87,1.71-6.34.18-9.08Z"/>
      <path class="cls-7" d="m61.89,21.73l-2.87,4.68c-1.46,2.38-.99,5.39.96,7.23l1.74-2.83c1.76-2.87,1.71-6.34.18-9.08Z"/>
      <path class="cls-7" d="m66.46,22.35l-2.87,4.68c-1.46,2.38-.99,5.39.96,7.23l1.74-2.83c1.76-2.87,1.71-6.34.18-9.08Z"/>
      <path class="cls-7" d="m71.33,23.23l-2.87,4.68c-1.46,2.38-.99,5.39.96,7.23l1.74-2.83c1.76-2.87,1.71-6.34.18-9.08Z"/>
      <path class="cls-7" d="m75.96,23.64l-2.87,4.68c-1.46,2.38-.99,5.39.96,7.23l1.74-2.83c1.76-2.87,1.71-6.34.18-9.08Z"/>
      <path class="cls-7" d="m80.84,24.18l-2.87,4.68c-1.46,2.38-.99,5.39.96,7.23l1.74-2.83c1.76-2.87,1.71-6.34.18-9.08Z"/>
      <path class="cls-7" d="m85.72,24.18l-2.87,4.68c-1.46,2.38-.99,5.39.96,7.23l1.74-2.83c1.76-2.87,1.71-6.34.18-9.08Z"/>
      <path class="cls-7" d="m32.05,7.76l-2.96,4.63c-1.5,2.35-1.09,5.37.83,7.25l1.79-2.8c1.81-2.84,1.83-6.31.34-9.07Z"/>
      <path class="cls-7" d="m28.45,4.9l-2.96,4.63c-1.5,2.35-1.09,5.37.83,7.25l1.79-2.8c1.81-2.84,1.83-6.31.34-9.07Z"/>
      <path class="cls-7" d="m20.21,29.29l2.24-5.01c1.14-2.54,3.89-3.87,6.51-3.29l-1.35,3.03c-1.37,3.07-4.26,5-7.39,5.27Z"/>
      <path class="cls-7" d="m16.38,24.16l2.24-5.01c1.14-2.54,3.89-3.87,6.51-3.29l-1.35,3.03c-1.37,3.07-4.26,5-7.39,5.27Z"/>
      <path class="cls-7" d="m23.81,32.73l2.24-5.01c1.14-2.54,3.89-3.87,6.51-3.29l-1.35,3.03c-1.37,3.07-4.26,5-7.39,5.27Z"/>
      <path class="cls-7" d="m32.6,37.86l2.24-5.01c1.14-2.54,3.89-3.87,6.51-3.29l-1.35,3.03c-1.37,3.07-4.26,5-7.39,5.27Z"/>
      <path class="cls-7" d="m37.71,39.36l2.24-5.01c1.14-2.54,3.89-3.87,6.51-3.29l-1.35,3.03c-1.37,3.07-4.26,5-7.39,5.27Z"/>
      <path class="cls-7" d="m42.49,41.16l2.24-5.01c1.14-2.54,3.89-3.87,6.51-3.29l-1.35,3.03c-1.37,3.07-4.26,5-7.39,5.27Z"/>
      <path class="cls-7" d="m48.28,42.08l2.24-5.01c1.14-2.54,3.89-3.87,6.51-3.29l-1.35,3.03c-1.37,3.07-4.26,5-7.39,5.27Z"/>
      <path class="cls-7" d="m53.79,43.17l2.24-5.01c1.14-2.54,3.89-3.87,6.51-3.29l-1.35,3.03c-1.37,3.07-4.26,5-7.39,5.27Z"/>
      <path class="cls-7" d="m59.86,43.58l2.24-5.01c1.14-2.54,3.89-3.87,6.51-3.29l-1.35,3.03c-1.37,3.07-4.26,5-7.39,5.27Z"/>
      <path class="cls-7" d="m65.67,43.99l2.24-5.01c1.14-2.54,3.89-3.87,6.51-3.29l-1.35,3.03c-1.37,3.07-4.26,5-7.39,5.27Z"/>
      <path class="cls-7" d="m70.92,44.33l2.24-5.01c1.14-2.54,3.89-3.87,6.51-3.29l-1.35,3.03c-1.37,3.07-4.26,5-7.39,5.27Z"/>
      <path class="cls-7" d="m76.64,44.33l2.24-5.01c1.14-2.54,3.89-3.87,6.51-3.29l-1.35,3.03c-1.37,3.07-4.26,5-7.39,5.27Z"/>
      <path class="cls-7" d="m27.73,35.24l2.24-5.01c1.14-2.54,3.89-3.87,6.51-3.29l-1.35,3.03c-1.37,3.07-4.26,5-7.39,5.27Z"/>
      <path class="cls-2" d="m25.52,16.34s11.73,20.69,62.11,18.8"/>
    </g>
  </g>
</svg>