<?xml version="1.0" encoding="UTF-8"?>
<svg id="Layer_1" data-name="Layer 1" xmlns="http://www.w3.org/2000/svg" viewBox="0 0 38.79 29.08">
  <defs>
    <style>
      .cls-1 {
        fill: #474747;
        stroke-width: 0px;
      }
    </style>
  </defs>
  <path class="cls-1" d="m4.86,6.05c0-.63,0-1.19,0-1.76,0-1,0-2.01,0-3.01C4.87.5,5.35.02,6.12,0c.17,0,.35,0,.52,0,10.18,0,20.35,0,30.53,0,1.22,0,1.62.39,1.62,1.61,0,7.44,0,14.88,0,22.33,0,3.09-2.06,5.14-5.14,5.14-9.9,0-19.8,0-29.7,0C1.51,29.08,0,27.57,0,25.13,0,19.32,0,13.5,0,7.69c0-1.24.41-1.64,1.65-1.64,1.05,0,2.1,0,3.2,0Zm2.38,20.61c.15,0,.34,0,.53,0,8.62,0,17.24,0,25.85,0,1.77,0,2.73-.96,2.73-2.72,0-6.97,0-13.95,0-20.92,0-.18-.02-.37-.02-.56H7.24v24.21ZM2.45,8.52c0,.25,0,.47,0,.69,0,5.19,0,10.37,0,15.56,0,.24,0,.48,0,.73.04.65.54,1.14,1.17,1.16.64.01,1.18-.49,1.23-1.16.01-.15,0-.31,0-.47,0-5.31,0-10.62,0-15.92,0-.19,0-.37,0-.58h-2.41Z"/>
  <path class="cls-1" d="m15.69,13.32c-1.16,0-2.32,0-3.47,0-.92,0-1.37-.45-1.37-1.37,0-1.5,0-3.01,0-4.51,0-.94.46-1.39,1.41-1.39,2.28,0,4.56,0,6.85,0,.97,0,1.43.46,1.43,1.43,0,1.49,0,2.97,0,4.46,0,.92-.46,1.38-1.36,1.38-1.16,0-2.32,0-3.47,0Z"/>
  <path class="cls-1" d="m21.78,20.59c3.34,0,6.67,0,10.01,0,.24,0,.49.02.72.08.48.14.8.58.82,1.09.02.53-.28,1.01-.77,1.17-.24.08-.51.1-.76.1-6.66,0-13.31,0-19.97,0-.19,0-.38,0-.56-.05-.58-.13-.95-.61-.94-1.2.01-.58.41-1.06.99-1.16.24-.04.48-.03.72-.03,3.25,0,6.5,0,9.75,0Z"/>
  <path class="cls-1" d="m21.82,15.76c3.3,0,6.6,0,9.91,0,.17,0,.35,0,.52.01.6.06,1.06.53,1.09,1.13.03.62-.39,1.16-1,1.26-.12.02-.24.02-.36.02-6.76,0-13.52,0-20.28,0-.12,0-.24,0-.36-.01-.6-.1-1.04-.64-1.01-1.26.03-.59.48-1.07,1.08-1.14.15-.02.31-.01.47-.01,3.32,0,6.64,0,9.96,0Z"/>
  <path class="cls-1" d="m28.16,8.49c-1.28,0-2.56,0-3.84,0-.63,0-1.07-.32-1.23-.84-.16-.51-.04-.98.39-1.29.24-.17.57-.29.86-.29,2.56-.02,5.11-.02,7.67,0,.79,0,1.32.51,1.32,1.23,0,.71-.53,1.21-1.33,1.21-1.28.01-2.56,0-3.84,0Z"/>
  <path class="cls-1" d="m28.16,13.32c-1.26,0-2.52,0-3.78,0-.83,0-1.36-.5-1.35-1.24.02-.71.55-1.18,1.36-1.18,2.52,0,5.04,0,7.56,0,.84,0,1.37.48,1.37,1.21,0,.73-.53,1.2-1.38,1.2-1.26,0-2.52,0-3.78,0Z"/>
</svg>